<?xml version="1.0" encoding="UTF-8" standalone="no"?>
<!DOCTYPE svg PUBLIC "-//W3C//DTD SVG 1.1//EN" "http://www.w3.org/Graphics/SVG/1.1/DTD/svg11.dtd">
<svg version="1.1" xmlns="http://www.w3.org/2000/svg" xmlns:xlink="http://www.w3.org/1999/xlink" preserveAspectRatio="xMidYMid meet" viewBox="0 0 200 200" width="64" height="64"><defs><path d="M65.37 50.21L65.41 50.75L65.46 51.28L65.54 51.8L65.64 52.32L65.76 52.82L65.9 53.32L66.06 53.82L66.24 54.3L66.44 54.77L66.66 55.23L66.9 55.68L67.15 56.12L67.42 56.55L67.71 56.97L68.02 57.37L68.34 57.77L68.67 58.14L69.02 58.51L69.38 58.86L69.76 59.19L70.15 59.51L70.56 59.82L70.98 60.1L71.4 60.38L71.85 60.63L72.3 60.87L72.76 61.08L73.23 61.28L73.71 61.46L74.2 61.63L74.7 61.77L75.21 61.89L75.73 61.99L76.25 62.07L76.78 62.12L77.32 62.16L77.86 62.17L122.14 62.17L122.68 62.16L123.22 62.12L123.75 62.07L124.27 61.99L124.79 61.89L125.3 61.77L125.8 61.63L126.29 61.46L126.77 61.28L127.24 61.08L127.7 60.87L128.15 60.63L128.6 60.38L129.02 60.1L129.44 59.82L129.85 59.51L130.24 59.19L130.62 58.86L130.98 58.51L131.33 58.14L131.66 57.77L131.98 57.37L132.29 56.97L132.58 56.55L132.85 56.12L133.1 55.68L133.34 55.23L133.56 54.77L133.76 54.3L133.94 53.82L134.1 53.32L134.24 52.82L134.36 52.32L134.46 51.8L134.54 51.28L134.59 50.75L134.63 50.21L134.64 49.67L134.64 38.64L180.82 38.64L181.34 38.65L181.85 38.68L182.35 38.73L182.85 38.8L183.34 38.89L183.83 39L184.31 39.13L184.77 39.28L185.24 39.44L185.69 39.62L186.13 39.82L186.57 40.03L186.99 40.27L187.41 40.51L187.81 40.77L188.21 41.05L188.59 41.34L188.96 41.65L189.32 41.97L189.66 42.3L190 42.65L190.31 43L190.62 43.38L190.91 43.76L191.19 44.15L191.45 44.56L191.7 44.97L191.93 45.4L192.14 45.83L192.34 46.27L192.52 46.73L192.69 47.19L192.83 47.66L192.96 48.14L193.07 48.62L193.16 49.11L193.23 49.61L193.28 50.11L193.31 50.62L193.32 51.14L193.32 155.55L193.31 156.07L193.28 156.58L193.23 157.08L193.16 157.58L193.07 158.07L192.96 158.56L192.83 159.03L192.69 159.5L192.52 159.96L192.34 160.42L192.14 160.86L191.93 161.3L191.7 161.72L191.45 162.14L191.19 162.54L190.91 162.93L190.62 163.32L190.31 163.69L190 164.04L189.66 164.39L189.32 164.72L188.96 165.04L188.59 165.35L188.21 165.64L187.81 165.92L187.41 166.18L186.99 166.43L186.57 166.66L186.13 166.87L185.69 167.07L185.24 167.25L184.77 167.41L184.31 167.56L183.83 167.69L183.34 167.8L182.85 167.89L182.35 167.96L181.85 168.01L181.34 168.04L180.82 168.05L17.59 168.05L17.07 168.04L16.56 168.01L16.06 167.96L15.56 167.89L15.07 167.8L14.58 167.69L14.11 167.56L13.64 167.41L13.18 167.25L12.72 167.07L12.28 166.87L11.84 166.66L11.42 166.43L11 166.18L10.6 165.92L10.21 165.64L9.82 165.35L9.45 165.04L9.1 164.72L8.75 164.39L8.42 164.04L8.1 163.69L7.79 163.32L7.5 162.93L7.22 162.54L6.96 162.14L6.71 161.72L6.48 161.3L6.27 160.86L6.07 160.42L5.89 159.96L5.73 159.5L5.58 159.03L5.45 158.56L5.34 158.07L5.25 157.58L5.18 157.08L5.13 156.58L5.1 156.07L5.09 155.55L5.09 51.14L5.1 50.62L5.13 50.11L5.18 49.61L5.25 49.11L5.34 48.62L5.45 48.14L5.58 47.66L5.73 47.19L5.89 46.73L6.07 46.27L6.27 45.83L6.48 45.4L6.71 44.97L6.96 44.56L7.22 44.15L7.5 43.76L7.79 43.38L8.1 43L8.42 42.65L8.75 42.3L9.1 41.97L9.45 41.65L9.82 41.34L10.21 41.05L10.6 40.77L11 40.51L11.42 40.27L11.84 40.03L12.28 39.82L12.72 39.62L13.18 39.44L13.64 39.28L14.11 39.13L14.58 39L15.07 38.89L15.56 38.8L16.06 38.73L16.56 38.68L17.07 38.65L17.59 38.64L65.36 38.64L65.36 49.67L65.37 50.21ZM63.11 88.52L62.99 88.54L62.87 88.55L62.75 88.57L62.62 88.59L62.49 88.62L62.36 88.65L62.23 88.69L62.1 88.73L61.98 88.78L61.87 88.83L61.76 88.88L61.65 88.94L61.55 89L61.46 89.06L61.37 89.12L61.29 89.19L61.21 89.26L61.13 89.33L61.06 89.41L61 89.48L60.94 89.56L60.88 89.64L60.83 89.72L60.78 89.8L60.74 89.89L60.7 89.97L60.67 90.05L60.63 90.13L60.61 90.22L60.58 90.3L60.56 90.38L60.55 90.47L60.53 90.55L60.52 90.63L60.52 90.71L60.51 90.78L60.51 90.86L60.52 90.93L60.52 91L60.53 91.07L60.54 91.14L60.56 91.21L60.57 91.27L60.59 91.33L60.62 91.38L60.64 91.43L60.67 91.48L60.69 91.52L60.72 91.57L60.75 91.61L60.78 91.64L60.8 91.68L60.83 91.71L60.86 91.74L60.88 91.77L60.91 91.8L60.93 91.83L60.95 91.86L60.97 91.88L60.99 91.91L61.01 91.94L61.02 91.96L61.04 91.99L61.05 92.02L61.06 92.05L61.06 92.08L61.06 92.11L61.06 92.14L61.06 92.17L61.05 92.21L61.04 92.24L61.02 92.28L61.01 92.33L60.98 92.37L60.95 92.42L60.92 92.47L60.88 92.53L60.84 92.59L60.79 92.65L60.74 92.72L60.68 92.79L60.62 92.86L60.55 92.94L60.47 93.03L60.39 93.12L60.3 93.22L60.21 93.31L60.12 93.4L60.04 93.48L59.97 93.55L59.9 93.61L59.83 93.67L59.77 93.72L59.72 93.77L59.66 93.81L59.61 93.85L59.56 93.89L59.52 93.92L59.48 93.95L59.44 93.98L59.4 94L59.36 94.03L59.33 94.05L59.3 94.08L59.26 94.11L59.23 94.13L59.2 94.16L59.17 94.19L59.14 94.23L59.11 94.27L59.08 94.31L59.05 94.36L59.02 94.41L58.98 94.47L58.95 94.53L58.91 94.6L58.87 94.68L58.83 94.77L58.78 94.86L58.73 94.96L58.68 95.07L58.63 95.2L58.57 95.33L58.51 95.47L58.45 95.63L58.38 95.79L58.33 95.91L58.24 96.14L58.19 96.25L58.15 96.36L58.1 96.48L58.02 96.7L57.94 96.92L57.9 97.03L57.86 97.14L57.82 97.24L57.79 97.35L57.75 97.45L57.72 97.56L57.65 97.77L57.62 97.87L57.59 97.98L57.56 98.08L57.53 98.18L57.5 98.28L57.47 98.38L57.44 98.48L57.42 98.58L57.39 98.68L57.37 98.77L57.34 98.87L57.3 99.06L57.26 99.25L57.24 99.35L57.2 99.53L57.19 99.62L57.17 99.71L57.15 99.8L57.14 99.89L57.14 99.86L57.13 99.83L57.12 99.79L57.1 99.77L57.07 99.74L57.03 99.72L56.99 99.69L56.93 99.68L56.88 99.66L56.81 99.65L56.74 99.63L56.66 99.62L56.57 99.62L56.47 99.61L56.37 99.61L56.26 99.61L56.15 99.61L56.02 99.61L55.89 99.62L55.75 99.63L55.6 99.64L55.45 99.65L55.29 99.67L55.12 99.69L54.95 99.71L54.76 99.73L54.58 99.76L54.38 99.78L54.17 99.81L53.96 99.84L53.74 99.88L53.52 99.91L53.28 99.95L53.04 99.99L52.79 100.04L52.54 100.08L52.28 100.13L52 100.18L51.73 100.23L51.44 100.29L51.01 100.38L50.59 100.47L50.18 100.56L49.78 100.66L49.38 100.76L48.98 100.87L48.6 100.98L48.22 101.09L47.84 101.21L47.47 101.34L47.11 101.47L46.75 101.6L46.39 101.75L46.04 101.89L45.69 102.05L45.35 102.21L45 102.38L44.66 102.55L44.32 102.73L43.99 102.92L43.65 103.11L43.32 103.31L42.98 103.52L42.65 103.74L42.32 103.97L41.99 104.2L41.65 104.44L41.32 104.69L40.98 104.95L40.64 105.22L40.3 105.49L39.96 105.78L39.62 106.07L39.27 106.38L38.92 106.69L38.56 107.02L38.2 107.35L37.84 107.7L37.47 108.06L37.1 108.42L36.73 108.8L36.38 109.18L36.03 109.56L35.71 109.95L35.39 110.34L35.09 110.74L34.81 111.13L34.53 111.53L34.27 111.94L34.02 112.34L33.78 112.74L33.55 113.14L33.34 113.55L33.13 113.95L32.93 114.35L32.75 114.75L32.58 115.14L32.41 115.53L32.26 115.92L32.11 116.3L31.98 116.68L31.85 117.06L31.73 117.43L31.62 117.79L31.52 118.14L31.43 118.49L31.34 118.83L31.26 119.16L31.19 119.49L31.12 119.8L31.06 120.1L31.01 120.4L30.97 120.68L30.92 120.95L30.89 121.21L30.86 121.45L30.83 121.69L30.81 121.91L30.8 122.11L30.78 122.3L30.77 122.49L30.77 122.68L30.77 122.89L30.76 123.09L30.77 123.3L30.77 123.52L30.78 123.74L30.79 123.97L30.8 124.2L30.82 124.44L30.83 124.67L30.85 124.91L30.88 125.16L30.9 125.4L30.93 125.64L30.96 125.89L30.99 126.14L31.02 126.38L31.05 126.63L31.09 126.87L31.13 127.12L31.17 127.36L31.22 127.6L31.26 127.83L31.31 128.07L31.36 128.3L31.41 128.52L31.46 128.75L31.52 128.96L31.58 129.17L31.63 129.38L31.69 129.58L31.75 129.77L31.82 129.96L31.88 130.13L31.95 130.31L32.02 130.47L32.08 130.62L32.15 130.76L32.23 130.9L32.27 130.98L32.32 131.07L32.38 131.15L32.43 131.23L32.49 131.31L32.54 131.39L32.6 131.47L32.66 131.55L32.72 131.63L32.79 131.7L32.85 131.78L32.92 131.85L32.99 131.92L33.06 132L33.13 132.07L33.2 132.13L33.28 132.2L33.35 132.27L33.43 132.34L33.51 132.4L33.59 132.47L33.68 132.53L33.76 132.59L33.85 132.65L33.94 132.71L34.03 132.77L34.12 132.83L34.21 132.88L34.3 132.94L34.4 132.99L34.5 133.05L34.6 133.1L34.7 133.15L34.8 133.2L34.91 133.25L35.01 133.3L35.12 133.34L35.23 133.39L35.34 133.43L35.45 133.48L35.49 133.59L35.53 133.71L35.58 133.83L35.62 133.94L35.66 134.06L35.7 134.17L35.75 134.28L35.83 134.5L35.88 134.6L35.96 134.81L36.05 135.02L36.1 135.12L36.14 135.22L36.19 135.32L36.23 135.42L36.28 135.51L36.33 135.61L36.37 135.7L36.42 135.79L36.47 135.88L36.51 135.97L36.56 136.06L36.61 136.15L36.66 136.24L36.75 136.41L36.8 136.49L36.9 136.65L36.95 136.73L37 136.81L37.1 136.96L37.15 137.03L37.2 137.1L37.25 137.17L37.3 137.24L37.36 137.31L37.41 137.38L37.47 137.45L37.53 137.53L37.59 137.6L37.65 137.67L37.72 137.74L37.79 137.82L37.86 137.89L37.93 137.97L38 138.04L38.08 138.12L38.16 138.2L38.24 138.27L38.33 138.35L38.41 138.43L38.5 138.51L38.59 138.59L38.69 138.67L38.78 138.75L38.88 138.83L38.98 138.91L39.08 138.99L39.18 139.08L39.29 139.16L39.4 139.24L39.51 139.33L39.62 139.41L39.73 139.5L39.85 139.59L39.97 139.67L40.09 139.76L40.22 139.85L40.34 139.94L40.47 140.03L40.6 140.12L40.74 140.21L40.87 140.3L41.01 140.39L41.15 140.48L40.26 141.41L39.64 143.06L39.78 144.25L39.36 144.71L39.36 145.71L39.98 146.04L43.69 146.04L45.95 142.4L46.25 142.45L46.53 142.5L46.82 142.55L47.1 142.6L47.37 142.65L47.64 142.7L47.91 142.74L48.17 142.79L48.43 142.83L48.68 142.87L48.93 142.91L49.17 142.95L49.41 142.99L49.65 143.03L49.88 143.06L50.1 143.1L50.33 143.13L50.54 143.16L50.76 143.2L50.96 143.23L51.17 143.26L51.37 143.28L51.56 143.31L51.75 143.34L51.94 143.36L52.12 143.38L52.29 143.41L52.47 143.43L52.64 143.45L52.8 143.47L52.96 143.48L53.11 143.5L53.26 143.52L53.41 143.53L53.55 143.54L53.69 143.56L53.82 143.57L53.95 143.58L54.07 143.58L54.19 143.59L54.31 143.6L54.43 143.6L54.55 143.61L54.68 143.61L54.81 143.61L54.95 143.62L55.08 143.62L55.22 143.62L55.37 143.62L55.51 143.62L55.66 143.62L55.82 143.62L55.97 143.61L56.13 143.61L56.3 143.61L56.46 143.6L56.63 143.6L56.8 143.59L56.98 143.58L57.16 143.57L57.34 143.57L57.52 143.56L57.71 143.55L57.9 143.53L58.1 143.52L58.3 143.51L58.5 143.5L58.7 143.48L58.91 143.47L59.12 143.45L59.33 143.44L59.55 143.42L59.77 143.4L59.99 143.39L60.22 143.37L60.45 143.35L60.68 143.33L60.91 143.3L61.15 143.28L61.4 143.26L63.39 146.57L64.69 147.03L67.78 146.76L68.19 146.04L67.57 144.71L67.57 143.26L66.96 141.41L68.53 140.75L70.04 139.76L71.01 139.76L72.86 142.4L73.68 142.4L75.26 142.6L76.84 142.6L77.04 141.8L77.04 141.08L76.29 140.48L76.3 140.45L76.32 140.42L76.33 140.39L76.34 140.35L76.35 140.32L76.36 140.28L76.37 140.25L76.38 140.21L76.39 140.12L76.4 140.08L76.4 140.04L76.41 139.99L76.41 139.95L76.42 139.85L76.42 139.8L76.43 139.75L76.43 139.69L76.43 139.58L76.43 139.53L76.42 139.47L76.42 139.41L76.42 139.35L76.41 139.23L76.4 139.16L76.4 139.1L76.39 139.03L76.39 138.97L76.38 138.9L76.37 138.83L76.36 138.76L76.35 138.68L76.34 138.61L76.33 138.53L76.32 138.46L76.3 138.38L76.29 138.3L76.28 138.22L76.26 138.14L76.24 138.07L76.22 137.99L76.2 137.92L76.18 137.84L76.16 137.77L76.13 137.7L76.11 137.63L76.08 137.56L76.05 137.49L76.02 137.42L75.99 137.35L75.96 137.29L75.92 137.22L75.88 137.16L75.85 137.1L75.81 137.03L75.77 136.97L75.72 136.91L75.68 136.86L75.59 136.74L75.49 136.63L75.44 136.57L75.39 136.52L75.33 136.47L75.28 136.42L75.22 136.37L75.16 136.32L75.1 136.27L75.04 136.22L74.98 136.18L74.92 136.13L74.85 136.09L74.78 136.05L74.72 136L74.65 135.96L74.57 135.92L74.6 135.89L74.63 135.85L74.71 135.74L74.74 135.71L74.76 135.67L74.79 135.64L74.81 135.6L74.84 135.57L74.92 135.46L74.97 135.39L74.99 135.36L75.02 135.33L75.04 135.29L75.06 135.26L75.09 135.23L75.11 135.19L75.14 135.16L75.16 135.13L75.18 135.1L75.23 135.03L75.25 135L75.28 134.97L75.32 134.9L75.34 134.87L75.36 134.84L75.39 134.81L75.41 134.78L75.43 134.75L75.45 134.72L75.47 134.69L75.49 134.66L75.51 134.63L75.53 134.6L75.58 134.54L75.6 134.5L75.62 134.47L75.64 134.44L75.66 134.4L75.68 134.36L75.71 134.33L75.73 134.28L75.75 134.24L75.8 134.16L75.82 134.12L75.85 134.07L75.87 134.02L75.9 133.98L75.92 133.93L75.95 133.88L75.97 133.83L76 133.77L76.02 133.72L76.05 133.66L76.08 133.61L76.1 133.55L76.13 133.49L76.16 133.44L76.18 133.37L76.21 133.31L76.24 133.25L76.27 133.19L76.3 133.12L76.33 133.06L76.35 132.99L76.38 132.92L76.44 132.78L76.47 132.71L76.5 132.63L76.53 132.56L76.56 132.48L76.63 132.44L76.69 132.4L76.75 132.36L76.81 132.32L76.87 132.28L76.93 132.24L77.11 132.11L77.17 132.07L77.22 132.02L77.4 131.89L77.51 131.8L77.56 131.75L77.62 131.7L77.68 131.66L77.73 131.61L77.79 131.56L77.84 131.51L77.9 131.46L77.95 131.41L78 131.36L78.05 131.31L78.11 131.26L78.16 131.21L78.21 131.16L78.26 131.11L78.31 131.06L78.37 131L78.47 130.9L78.52 130.84L78.66 130.68L78.71 130.62L78.76 130.57L78.83 130.48L78.91 130.39L78.99 130.29L79.07 130.19L79.15 130.09L79.23 129.98L79.32 129.86L79.41 129.74L79.49 129.62L79.58 129.5L79.67 129.37L79.76 129.24L79.85 129.1L79.94 128.96L80.03 128.82L80.12 128.68L80.22 128.54L80.31 128.39L80.4 128.25L80.48 128.1L80.57 127.95L80.66 127.79L80.75 127.64L80.83 127.49L80.91 127.33L81 127.18L81.07 127.02L81.15 126.87L81.23 126.72L81.3 126.56L81.37 126.41L81.44 126.25L81.5 126.1L81.56 125.95L81.62 125.8L81.67 125.65L81.72 125.51L81.77 125.36L81.81 125.22L81.85 125.08L81.88 124.94L81.92 124.79L81.95 124.63L81.98 124.46L82.01 124.28L82.04 124.1L82.06 123.91L82.08 123.71L82.1 123.5L82.12 123.29L82.14 123.08L82.15 122.85L82.16 122.62L82.17 122.38L82.18 122.14L82.18 121.89L82.18 121.64L82.18 121.38L82.17 121.12L82.17 120.85L82.16 120.58L82.14 120.3L82.13 120.02L82.11 119.73L82.08 119.45L82.06 119.15L82.03 118.86L81.99 118.56L81.96 118.26L81.92 117.96L81.87 117.65L81.83 117.35L81.77 117.04L81.72 116.73L81.66 116.41L81.6 116.1L81.53 115.78L81.46 115.47L81.38 115.15L81.3 114.83L81.21 114.52L81.12 114.2L81.01 113.89L80.9 113.58L80.77 113.27L80.64 112.96L80.5 112.65L80.35 112.35L80.2 112.04L80.03 111.74L79.86 111.44L79.68 111.14L79.49 110.85L79.29 110.56L79.08 110.27L78.87 109.98L78.65 109.69L78.42 109.41L78.19 109.12L77.95 108.84L77.7 108.57L77.44 108.29L77.18 108.02L76.91 107.75L76.63 107.48L76.35 107.21L76.06 106.95L75.76 106.69L75.46 106.43L75.15 106.18L74.84 105.93L74.52 105.68L74.19 105.43L73.86 105.19L73.52 104.95L73.18 104.71L72.83 104.48L72.48 104.25L72.12 104.02L71.76 103.79L71.52 103.65L71.27 103.5L71.03 103.36L70.78 103.22L70.53 103.09L70.28 102.95L70.04 102.82L69.79 102.69L69.54 102.57L69.29 102.45L69.03 102.33L68.78 102.21L68.53 102.1L68.27 101.99L68.02 101.88L67.76 101.77L67.51 101.67L67.25 101.57L66.99 101.47L66.73 101.38L66.47 101.29L66.21 101.2L65.95 101.12L65.69 101.03L65.43 100.95L65.16 100.88L64.9 100.8L64.63 100.73L64.37 100.66L64.1 100.6L63.83 100.53L63.57 100.47L63.3 100.41L63.03 100.36L62.76 100.31L62.49 100.26L62.22 100.21L61.94 100.17L61.67 100.13L61.4 100.09L61.38 100.03L61.36 99.97L61.35 99.91L61.33 99.85L61.32 99.78L61.31 99.72L61.29 99.59L61.28 99.52L61.26 99.39L61.25 99.32L61.25 99.25L61.24 99.18L61.24 99.11L61.23 99.03L61.23 98.96L61.23 98.89L61.22 98.81L61.22 98.66L61.23 98.58L61.23 98.5L61.24 98.35L61.24 98.27L61.25 98.18L61.25 98.1L61.26 98.02L61.28 97.85L61.29 97.76L61.3 97.68L61.31 97.59L61.32 97.5L61.33 97.41L61.35 97.32L61.36 97.23L61.38 97.14L61.41 96.96L61.43 96.87L61.45 96.78L61.47 96.69L61.5 96.6L61.55 96.42L61.58 96.33L61.64 96.16L61.67 96.07L61.7 95.99L61.74 95.9L61.77 95.82L61.81 95.74L61.85 95.65L61.89 95.57L61.93 95.49L61.97 95.41L62.01 95.33L62.06 95.25L62.11 95.17L62.15 95.1L62.2 95.02L62.25 94.94L62.31 94.87L62.36 94.79L62.41 94.72L62.53 94.57L62.59 94.5L62.65 94.43L62.71 94.36L62.77 94.29L62.84 94.22L62.9 94.15L62.97 94.08L63.04 94.01L63.11 93.94L63.18 93.88L63.27 93.88L63.36 93.88L63.45 93.88L63.54 93.88L63.63 93.88L63.71 93.87L63.8 93.87L63.88 93.86L63.96 93.85L64.04 93.84L64.12 93.83L64.19 93.82L64.27 93.81L64.34 93.79L64.42 93.78L64.49 93.76L64.56 93.74L64.63 93.72L64.69 93.7L64.76 93.68L64.82 93.66L64.89 93.63L64.95 93.6L65.01 93.58L65.07 93.55L65.13 93.52L65.18 93.48L65.24 93.45L65.29 93.42L65.34 93.38L65.39 93.34L65.44 93.31L65.49 93.27L65.54 93.23L65.58 93.18L65.63 93.14L65.67 93.09L65.71 93.05L65.75 93L65.79 92.95L65.84 92.88L65.89 92.81L65.94 92.73L65.99 92.66L66.03 92.59L66.06 92.53L66.1 92.46L66.13 92.39L66.16 92.32L66.18 92.26L66.21 92.19L66.23 92.13L66.24 92.06L66.25 91.99L66.27 91.93L66.27 91.87L66.28 91.8L66.28 91.74L66.28 91.67L66.28 91.6L66.27 91.54L66.27 91.47L66.26 91.41L66.24 91.34L66.23 91.27L66.21 91.2L66.19 91.13L66.17 91.06L66.15 90.99L66.13 90.92L66.1 90.84L66.07 90.77L66.04 90.69L66.01 90.61L65.98 90.53L65.94 90.45L65.91 90.37L65.87 90.28L65.83 90.2L65.79 90.11L65.75 90.02L65.7 89.93L65.66 89.85L65.61 89.77L65.56 89.69L65.5 89.61L65.45 89.53L65.39 89.46L65.33 89.38L65.27 89.31L65.21 89.25L65.14 89.18L65.07 89.12L65 89.06L64.93 89L64.86 88.95L64.78 88.9L64.7 88.85L64.62 88.8L64.54 88.76L64.45 88.72L64.36 88.69L64.27 88.65L64.18 88.62L64.08 88.6L63.98 88.58L63.88 88.56L63.78 88.54L63.68 88.53L63.57 88.52L63.46 88.51L63.35 88.51L63.23 88.52L63.11 88.52ZM117.13 133.48L116.89 133.52L116.65 133.58L116.42 133.67L116.2 133.77L115.99 133.9L115.8 134.04L115.62 134.2L115.46 134.38L115.32 134.57L115.19 134.78L115.09 134.99L115 135.22L114.94 135.46L114.91 135.71L114.89 135.97L114.89 140.96L114.91 141.22L114.94 141.47L115 141.7L115.09 141.93L115.19 142.15L115.32 142.36L115.46 142.55L115.62 142.73L115.8 142.89L115.99 143.03L116.2 143.16L116.42 143.26L116.65 143.35L116.89 143.41L117.13 143.45L117.39 143.46L145.07 143.46L145.33 143.45L145.58 143.41L145.82 143.35L146.05 143.26L146.27 143.16L146.47 143.03L146.66 142.89L146.84 142.73L147 142.55L147.15 142.36L147.27 142.15L147.38 141.93L147.46 141.7L147.52 141.47L147.56 141.22L147.57 140.96L147.57 135.97L147.56 135.71L147.52 135.46L147.46 135.22L147.38 134.99L147.27 134.78L147.15 134.57L147 134.38L146.84 134.2L146.66 134.04L146.47 133.9L146.27 133.77L146.05 133.67L145.82 133.58L145.58 133.52L145.33 133.48L145.07 133.47L117.39 133.47L117.13 133.48ZM119.05 115.1L118.76 115.12L118.48 115.17L118.2 115.23L117.93 115.31L117.67 115.41L117.42 115.52L117.17 115.65L116.94 115.79L116.71 115.94L116.5 116.11L116.29 116.29L116.1 116.49L115.92 116.69L115.75 116.91L115.6 117.13L115.45 117.37L115.33 117.61L115.22 117.87L115.12 118.13L115.04 118.4L114.98 118.67L114.93 118.95L114.9 119.24L114.89 119.53L114.89 120.63L114.9 120.92L114.93 121.21L114.98 121.49L115.04 121.77L115.12 122.04L115.22 122.3L115.33 122.55L115.45 122.8L115.6 123.03L115.75 123.26L115.92 123.47L116.1 123.68L116.29 123.87L116.5 124.05L116.71 124.22L116.94 124.37L117.17 124.52L117.42 124.64L117.67 124.75L117.93 124.85L118.2 124.93L118.48 124.99L118.76 125.04L119.05 125.07L119.34 125.08L168.62 125.08L168.91 125.07L169.2 125.04L169.48 124.99L169.75 124.93L170.02 124.85L170.28 124.75L170.54 124.64L170.78 124.52L171.02 124.37L171.24 124.22L171.46 124.05L171.66 123.87L171.86 123.68L172.04 123.47L172.2 123.26L172.36 123.03L172.5 122.8L172.63 122.55L172.74 122.3L172.84 122.04L172.92 121.77L172.98 121.49L173.03 121.21L173.05 120.92L173.06 120.63L173.06 119.53L173.05 119.24L173.03 118.95L172.98 118.67L172.92 118.4L172.84 118.13L172.74 117.87L172.63 117.61L172.5 117.37L172.36 117.13L172.2 116.91L172.04 116.69L171.86 116.49L171.66 116.29L171.46 116.11L171.24 115.94L171.02 115.79L170.78 115.65L170.54 115.52L170.28 115.41L170.02 115.31L169.75 115.23L169.48 115.17L169.2 115.12L168.91 115.1L168.62 115.09L119.34 115.09L119.05 115.1ZM118.06 97.23L117.78 97.27L117.51 97.32L117.25 97.4L117 97.49L116.76 97.61L116.52 97.74L116.3 97.89L116.1 98.05L115.9 98.23L115.72 98.43L115.56 98.63L115.41 98.85L115.28 99.09L115.16 99.33L115.07 99.58L114.99 99.84L114.94 100.11L114.9 100.39L114.89 100.67L114.89 103.77L114.9 104.05L114.94 104.33L114.99 104.59L115.07 104.86L115.16 105.11L115.28 105.35L115.41 105.58L115.56 105.8L115.72 106.01L115.9 106.2L116.1 106.38L116.3 106.55L116.52 106.7L116.76 106.83L117 106.94L117.25 107.04L117.51 107.11L117.78 107.17L118.06 107.2L118.34 107.21L156.54 107.21L156.83 107.2L157.1 107.17L157.37 107.11L157.63 107.04L157.89 106.94L158.13 106.83L158.36 106.7L158.58 106.55L158.79 106.38L158.98 106.2L159.16 106.01L159.33 105.8L159.47 105.58L159.61 105.35L159.72 105.11L159.81 104.86L159.89 104.59L159.95 104.33L159.98 104.05L159.99 103.77L159.99 100.67L159.98 100.39L159.95 100.11L159.89 99.84L159.81 99.58L159.72 99.33L159.61 99.09L159.47 98.85L159.33 98.63L159.16 98.43L158.98 98.23L158.79 98.05L158.58 97.89L158.36 97.74L158.13 97.61L157.89 97.49L157.63 97.4L157.37 97.32L157.1 97.27L156.83 97.23L156.54 97.22L118.34 97.22L118.06 97.23ZM50.08 78.66L49.94 78.7L49.82 78.76L49.7 78.83L49.59 78.92L49.49 79.01L49.04 79.54L48.76 79.85L48.63 80.01L48.62 80.01L48.6 80.04L48.6 80.04L48.6 80.04L47.23 81.85L46.13 83.79L45.32 85.84L44.79 87.96L44.55 90.14L44.61 92.33L44.97 94.51L45.63 96.66L45.7 96.81L45.79 96.94L45.89 97.07L46.01 97.17L46.15 97.26L46.29 97.34L46.45 97.39L46.61 97.43L46.71 97.44L46.73 97.44L46.74 97.45L46.77 97.45L46.83 97.46L47.01 97.47L47.2 97.47L47.38 97.44L47.56 97.4L47.73 97.34L47.9 97.25L48.05 97.15L48.19 97.03L48.35 96.87L48.47 96.69L48.57 96.5L48.64 96.3L48.68 96.09L48.69 95.88L48.68 95.66L48.63 95.45L48.49 95.01L48.42 94.77L48.42 94.76L48.4 94.72L48.4 94.71L48.4 94.7L48.02 93.13L47.83 91.54L47.82 89.95L48.01 88.38L48.37 86.83L48.92 85.33L49.64 83.88L50.54 82.52L50.63 82.4L50.69 82.31L50.75 82.23L50.82 82.14L50.93 81.99L51.1 81.77L51.34 81.44L51.69 80.98L51.76 80.87L51.83 80.76L51.89 80.64L51.94 80.52L51.99 80.39L52.02 80.27L52.05 80.14L52.06 80.11L52.06 79.89L52.01 79.64L51.92 79.41L51.78 79.2L51.61 79.02L51.4 78.88L51.17 78.77L50.91 78.7L50.8 78.69L50.78 78.69L50.72 78.68L50.6 78.66L50.5 78.65L50.35 78.64L50.21 78.64L50.08 78.66ZM75.71 78.34L75.6 78.36L75.53 78.38L75.46 78.39L75.43 78.4L75.41 78.4L75.37 78.41L75.3 78.42L75.05 78.5L74.82 78.62L74.62 78.77L74.46 78.96L74.33 79.17L74.25 79.41L74.22 79.66L74.23 79.89L74.24 79.91L74.27 80.04L74.31 80.16L74.36 80.28L74.42 80.4L74.49 80.52L74.57 80.63L74.65 80.73L75.01 81.17L75.28 81.49L75.45 81.7L75.57 81.84L75.65 81.94L75.71 82.01L75.78 82.09L75.88 82.21L76.85 83.53L77.65 84.93L78.27 86.41L78.72 87.93L78.99 89.5L79.08 91.09L78.97 92.68L78.68 94.28L78.67 94.29L78.67 94.31L78.66 94.34L78.66 94.33L78.67 94.31L78.66 94.33L78.49 95.03L78.45 95.24L78.44 95.46L78.47 95.67L78.52 95.88L78.6 96.08L78.71 96.26L78.85 96.43L79.01 96.59L79.16 96.7L79.31 96.79L79.48 96.87L79.66 96.92L79.84 96.96L80.02 96.97L80.21 96.97L80.4 96.94L80.48 96.93L80.49 96.92L80.52 96.92L80.55 96.91L80.61 96.9L80.77 96.86L80.92 96.8L81.06 96.71L81.19 96.62L81.31 96.5L81.4 96.38L81.49 96.24L81.55 96.09L82.09 93.91L82.33 91.71L82.27 89.52L81.92 87.36L81.27 85.26L80.35 83.26L79.15 81.37L77.68 79.64L77.62 79.58L77.64 79.59L77.67 79.63L77.65 79.61L77.51 79.46L77.21 79.16L76.73 78.66L76.63 78.56L76.52 78.49L76.39 78.42L76.27 78.37L76.13 78.34L75.99 78.32L75.85 78.32L75.71 78.34ZM53.12 82.01L52.89 82.13L52.68 82.3L52.51 82.5L52.28 82.82L52.22 82.9L52.21 82.91L52.11 83.05L52.14 83.02L52.21 82.91L52.28 82.82L52.29 82.81L52.29 82.81L52.3 82.8L52.29 82.81L51.17 84.64L50.35 86.58L49.83 88.61L49.62 90.68L49.73 92.78L50.15 94.86L50.28 95.17L50.47 95.45L50.71 95.68L51 95.86L51.32 95.98L51.67 96.03L51.91 96.02L52.14 95.96L52.35 95.86L52.54 95.73L52.7 95.56L52.82 95.36L52.95 95.05L53.04 94.74L53.1 94.42L53.12 94.09L53.11 93.77L53.07 93.44L53.06 93.38L53.05 93.35L53.05 93.35L53.04 93.28L53.05 93.35L52.88 92L52.86 90.65L53 89.31L53.3 88L53.76 86.72L54.37 85.49L54.46 85.33L54.52 85.22L54.59 85.09L54.7 84.91L55.09 84.23L55.19 84.02L55.26 83.8L55.3 83.58L55.31 83.35L55.29 83.12L55.24 82.9L55.22 82.83L55.21 82.82L55.22 82.83L55.2 82.78L55.1 82.55L54.96 82.35L54.79 82.18L54.58 82.04L54.34 81.95L54.09 81.9L54.02 81.89L53.99 81.89L53.99 81.89L53.97 81.89L53.9 81.88L53.63 81.88L53.36 81.92L53.12 82.01ZM72.42 81.75L72.39 81.76L72.39 81.76L72.37 81.76L72.3 81.77L72.05 81.83L71.82 81.94L71.62 82.08L71.45 82.26L71.32 82.47L71.24 82.71L71.23 82.75L71.23 82.75L71.22 82.76L71.22 82.76L71.22 82.77L71.21 82.82L71.17 83.05L71.16 83.28L71.18 83.51L71.23 83.73L71.32 83.94L71.43 84.15L71.69 84.55L71.86 84.81L71.97 84.98L72.04 85.1L72.12 85.22L72.22 85.37L72.89 86.57L73.41 87.82L73.78 89.12L74 90.45L74.06 91.8L73.95 93.16L73.94 93.25L73.92 93.57L73.92 93.9L73.97 94.22L74.04 94.54L74.15 94.85L74.3 95.15L74.43 95.34L74.6 95.5L74.79 95.63L75.01 95.72L75.24 95.76L75.48 95.76L75.83 95.69L76.14 95.56L76.42 95.36L76.65 95.12L76.82 94.83L76.94 94.51L77.24 92.41L77.23 90.32L76.91 88.25L76.28 86.26L75.36 84.36L74.15 82.6L73.91 82.29L73.72 82.1L73.51 81.94L73.27 81.83L73.02 81.76L72.76 81.73L72.49 81.74L72.42 81.75ZM48.4 94.71L48.4 94.7L48.4 94.7L48.4 94.71ZM56.19 85.56L55.86 85.93L55.67 86.23L55.56 86.4L54.86 87.75L54.46 89.19L54.36 90.68L54.57 92.17L54.61 92.32L54.62 92.37L54.65 92.5L54.75 92.88L54.92 93.29L55.22 93.6L55.61 93.81L56.06 93.89L56.26 93.87L56.45 93.83L56.63 93.75L56.8 93.65L56.86 93.61L56.87 93.6L56.87 93.6L56.9 93.58L57.15 93.35L57.32 93.08L57.42 92.76L57.42 92.44L57.39 92.14L57.37 91.94L57.35 91.78L57.33 91.58L57.3 90.82L57.38 90.07L57.56 89.34L57.84 88.64L57.97 88.37L58.11 88.08L58.26 87.77L58.43 87.41L58.55 87.11L58.63 86.8L58.65 86.48L58.64 86.23L58.53 85.89L58.32 85.58L58.01 85.35L57.64 85.21L57.61 85.21L57.1 85.18L56.62 85.3L56.19 85.56ZM68.93 85.26L68.57 85.41L68.28 85.66L68.08 85.98L67.99 86.32L67.99 86.58L68.03 86.89L68.12 87.2L68.26 87.49L68.45 87.84L68.62 88.15L68.77 88.42L68.92 88.69L69.24 89.38L69.46 90.1L69.58 90.84L69.59 91.6L69.58 91.8L69.57 91.97L69.56 92.17L69.54 92.46L69.57 92.79L69.68 93.1L69.87 93.36L70.13 93.58L70.16 93.6L70.16 93.6L70.16 93.6L70.23 93.64L70.4 93.74L70.59 93.8L70.78 93.84L70.98 93.84L71.42 93.74L71.8 93.52L72.08 93.18L72.24 92.77L72.31 92.38L72.34 92.26L72.35 92.21L72.37 92.06L72.5 90.55L72.32 89.07L71.84 87.65L71.08 86.34L71 86.24L71 86.24L70.96 86.17L70.75 85.88L70.4 85.53L69.96 85.3L69.47 85.2L68.97 85.25L68.93 85.26ZM53.06 93.38L53.05 93.35L53.06 93.38L53.06 93.38ZM73.95 93.18L73.95 93.16L73.95 93.16L73.95 93.18ZM53.01 93.16L53 93.09L53.01 93.16L53.01 93.16ZM73.96 93.09L73.98 92.96L73.96 93.09L73.96 93.09ZM73.98 92.96L73.99 92.89L73.98 92.96L73.98 92.96ZM119.59 78.33L119.31 78.36L119.02 78.4L118.74 78.45L118.47 78.53L118.2 78.61L117.94 78.71L117.69 78.83L117.45 78.96L117.21 79.1L116.98 79.25L116.76 79.42L116.55 79.6L116.36 79.79L116.17 79.98L115.99 80.19L115.82 80.41L115.67 80.64L115.53 80.88L115.4 81.12L115.29 81.37L115.18 81.63L115.1 81.9L115.02 82.17L114.97 82.45L114.93 82.74L114.9 83.02L114.89 83.32L114.9 83.61L114.93 83.9L114.97 84.18L115.02 84.46L115.1 84.74L115.18 85L115.29 85.26L115.4 85.51L115.53 85.76L115.67 86L115.82 86.22L115.99 86.44L116.17 86.65L116.36 86.85L116.55 87.04L116.76 87.22L116.98 87.38L117.21 87.54L117.45 87.68L117.69 87.81L117.94 87.92L118.2 88.02L118.47 88.11L118.74 88.18L119.02 88.24L119.31 88.28L119.59 88.3L119.89 88.31L175.26 88.31L175.55 88.3L175.84 88.28L176.12 88.24L176.4 88.18L176.67 88.11L176.94 88.02L177.2 87.92L177.45 87.81L177.7 87.68L177.93 87.54L178.16 87.38L178.38 87.22L178.59 87.04L178.79 86.85L178.98 86.65L179.15 86.44L179.32 86.22L179.47 86L179.62 85.76L179.74 85.51L179.86 85.26L179.96 85L180.05 84.74L180.12 84.46L180.18 84.18L180.22 83.9L180.24 83.61L180.25 83.32L180.24 83.02L180.22 82.74L180.18 82.45L180.12 82.17L180.05 81.9L179.96 81.63L179.86 81.37L179.74 81.12L179.62 80.88L179.47 80.64L179.32 80.41L179.15 80.19L178.98 79.98L178.79 79.79L178.59 79.6L178.38 79.42L178.16 79.25L177.93 79.1L177.7 78.96L177.45 78.83L177.2 78.71L176.94 78.61L176.67 78.53L176.4 78.45L176.12 78.4L175.84 78.36L175.55 78.33L175.26 78.32L119.89 78.32L119.59 78.33ZM67.98 86.35L67.99 86.32L67.99 86.26L67.99 86.29L67.98 86.35ZM58.64 86.23L58.65 86.25L58.65 86.27L58.65 86.25L58.65 86.25L58.64 86.19L58.64 86.17L58.63 86.17L58.63 86.13L58.64 86.17L58.64 86.23ZM68.97 85.25L69.01 85.24L68.97 85.25L68.97 85.25ZM57.64 85.21L57.64 85.21L57.66 85.22L57.64 85.21L57.56 85.2L57.61 85.21L57.64 85.21ZM71.22 82.77L71.22 82.76L71.22 82.76L71.23 82.75L71.23 82.75L71.22 82.76L71.22 82.77L71.22 82.77ZM74.15 82.6L74.23 82.69L74.27 82.75L74.22 82.68L74.14 82.58L74.15 82.59L74.15 82.6ZM52.06 80.11L52.06 80.14L52.06 80.15L52.06 80.12L52.07 80.02L52.07 80.02L52.07 80.01L52.07 80.02L52.06 80.11ZM48.6 80.04L48.6 80.04L48.59 80.05L48.6 80.04ZM48.62 80.01L48.64 79.99L48.61 80.02L48.62 80.01ZM52.08 79.97L52.07 80.01L52.07 80.01L52.08 79.97L52.08 79.95L52.08 79.97L52.08 79.97ZM74.2 79.73L74.2 79.75L74.21 79.79L74.22 79.85L74.23 79.9L74.23 79.92L74.23 79.92L74.23 79.89L74.21 79.78L74.2 79.73L74.2 79.72L74.2 79.73L74.2 79.73ZM105.93 16.77L106.85 16.98L107.73 17.26L108.56 17.64L109.35 18.09L110.09 18.61L110.78 19.21L111.4 19.87L111.95 20.58L112.44 21.35L112.85 22.18L113.17 23.04L113.41 23.94L113.56 24.88L113.61 25.85L113.61 28.18L122.48 28.18L122.71 28.19L122.93 28.21L123.15 28.24L123.37 28.28L123.59 28.33L123.8 28.4L124 28.47L124.2 28.55L124.4 28.65L124.59 28.75L124.77 28.87L124.95 28.99L125.12 29.12L125.28 29.26L125.43 29.41L125.58 29.56L125.72 29.72L125.85 29.89L125.97 30.07L126.09 30.25L126.19 30.44L126.29 30.64L126.37 30.84L126.44 31.04L126.51 31.25L126.56 31.47L126.6 31.68L126.63 31.91L126.65 32.13L126.66 32.36L126.66 48.3L126.65 48.63L126.62 48.95L126.58 49.27L126.52 49.59L126.44 49.9L126.35 50.2L126.24 50.5L126.12 50.79L125.98 51.07L125.83 51.34L125.67 51.6L125.49 51.86L125.3 52.1L125.1 52.34L124.89 52.56L124.67 52.77L124.43 52.97L124.19 53.16L123.93 53.34L123.67 53.5L123.4 53.65L123.12 53.79L122.83 53.91L122.53 54.02L122.23 54.11L121.92 54.19L121.61 54.25L121.28 54.29L120.96 54.32L120.63 54.33L78.17 54.33L77.89 54.32L77.61 54.3L77.34 54.26L77.07 54.21L76.81 54.14L76.55 54.07L76.3 53.97L76.06 53.87L75.82 53.76L75.59 53.63L75.37 53.49L75.15 53.34L74.95 53.18L74.75 53.01L74.56 52.83L74.38 52.64L74.21 52.44L74.05 52.24L73.9 52.02L73.76 51.8L73.63 51.57L73.52 51.33L73.41 51.08L73.32 50.83L73.24 50.58L73.18 50.32L73.13 50.05L73.09 49.78L73.07 49.5L73.06 49.22L73.06 34.85L73.07 34.48L73.1 34.12L73.15 33.76L73.22 33.42L73.3 33.07L73.4 32.74L73.52 32.41L73.66 32.09L73.81 31.78L73.97 31.48L74.15 31.19L74.35 30.91L74.56 30.64L74.78 30.38L75.01 30.13L75.26 29.9L75.52 29.68L75.79 29.47L76.07 29.27L76.36 29.09L76.66 28.93L76.97 28.78L77.29 28.64L77.62 28.52L77.95 28.42L78.3 28.34L78.64 28.27L79 28.22L79.36 28.19L79.73 28.18L87.44 28.18L87.44 22.08L87.47 21.59L87.54 21.11L87.65 20.65L87.81 20.21L88 19.79L88.24 19.39L88.51 19.01L88.81 18.67L89.15 18.35L89.51 18.06L89.9 17.81L90.31 17.6L90.74 17.42L91.2 17.29L91.67 17.2L92.16 17.15L104.02 16.66L104.99 16.67L105.93 16.77ZM67.99 86.23L67.99 86.26L67.99 86.26L67.99 86.23Z" id="b9QRpGWY5"></path></defs><g><g><g><use xlink:href="#b9QRpGWY5" opacity="1" fill="#ffffff" fill-opacity="0.82"></use></g></g></g></svg>