<?xml version="1.0" encoding="UTF-8" standalone="no"?>
<!DOCTYPE svg PUBLIC "-//W3C//DTD SVG 1.1//EN" "http://www.w3.org/Graphics/SVG/1.1/DTD/svg11.dtd">
<svg version="1.1" xmlns="http://www.w3.org/2000/svg" xmlns:xlink="http://www.w3.org/1999/xlink" preserveAspectRatio="xMidYMid meet" viewBox="0 0 200 200" width="70" height="70"><defs><path d="M98.27 10.19C102.67 10.19 106.24 13.76 106.24 18.16C106.24 52.49 106.24 148.06 106.24 182.53C106.24 186.55 102.98 189.81 98.96 189.81C83.85 189.81 46.77 189.81 31.9 189.81C27.19 189.81 23.38 185.99 23.38 181.28C23.38 147.07 23.38 52.49 23.38 18.16C23.38 13.76 26.95 10.19 31.35 10.19C46.33 10.19 83.29 10.19 98.27 10.19Z" id="dvBh2kFd8"></path><path d="M21.97 189.73L21.59 189.68L21.22 189.61L20.85 189.53L20.49 189.43L20.13 189.32L19.78 189.2L19.44 189.06L19.1 188.91L18.77 188.75L18.45 188.57L18.13 188.38L17.83 188.19L17.53 187.98L17.24 187.75L16.96 187.52L16.68 187.28L16.42 187.03L16.17 186.76L15.93 186.49L15.69 186.21L15.47 185.92L15.26 185.62L15.06 185.32L14.88 185L14.7 184.68L14.54 184.35L14.39 184.01L14.25 183.67L14.13 183.32L14.02 182.96L13.92 182.6L13.84 182.23L13.77 181.86L13.71 181.48L13.67 181.1L13.65 180.71L13.64 180.32L13.64 19.06L13.65 18.7L13.67 18.34L13.71 17.98L13.76 17.63L13.82 17.28L13.9 16.93L13.99 16.59L14.1 16.26L14.21 15.93L14.34 15.61L14.48 15.3L14.63 14.99L14.8 14.69L14.97 14.39L15.16 14.1L15.35 13.83L15.56 13.55L15.78 13.29L16 13.04L16.24 12.79L16.49 12.56L16.74 12.33L17 12.11L17.27 11.91L17.55 11.71L17.84 11.52L18.13 11.35L18.44 11.18L18.74 11.03L19.06 10.89L19.38 10.76L19.71 10.65L20.04 10.54L20.38 10.45L20.72 10.38L21.07 10.31L21.43 10.26L21.78 10.22L22.15 10.2L22.51 10.19L31.49 10.19L31.16 10.2L30.84 10.22L30.52 10.25L30.2 10.3L29.88 10.36L29.58 10.43L29.27 10.51L28.97 10.6L28.68 10.71L28.39 10.82L28.11 10.95L27.83 11.08L27.56 11.23L27.29 11.39L27.04 11.56L26.78 11.73L26.54 11.92L26.3 12.11L26.08 12.32L25.86 12.53L25.64 12.75L25.44 12.98L25.25 13.21L25.06 13.46L24.88 13.71L24.72 13.97L24.56 14.23L24.41 14.5L24.27 14.78L24.15 15.06L24.03 15.35L23.93 15.64L23.84 15.94L23.75 16.25L23.68 16.56L23.63 16.87L23.58 17.19L23.55 17.51L23.53 17.83L23.52 18.16L23.52 181.28L23.53 181.63L23.55 181.98L23.59 182.33L23.63 182.67L23.7 183L23.77 183.33L23.86 183.66L23.96 183.98L24.07 184.29L24.19 184.6L24.33 184.9L24.47 185.2L24.63 185.49L24.8 185.77L24.98 186.05L25.17 186.32L25.37 186.58L25.57 186.83L25.79 187.07L26.02 187.31L26.25 187.54L26.5 187.75L26.75 187.96L27.01 188.16L27.28 188.35L27.56 188.53L27.84 188.7L28.13 188.85L28.42 189L28.73 189.14L29.04 189.26L29.35 189.37L29.67 189.47L30 189.56L30.33 189.63L30.66 189.69L31 189.74L31.34 189.78L31.69 189.8L32.04 189.81L23.13 189.81L22.74 189.8L22.35 189.77L22.35 189.77L21.97 189.73Z" id="bpkm5mjwY"></path><path d="M53.42 82.29L53.42 35.36L53.44 34.84L53.48 34.33L53.55 33.82L53.66 33.33L53.78 32.85L53.94 32.38L54.12 31.92L54.32 31.47L54.55 31.04L54.8 30.62L55.07 30.21L55.37 29.83L55.68 29.46L56.01 29.1L56.37 28.77L56.74 28.46L57.12 28.16L57.53 27.89L57.94 27.64L58.38 27.41L58.82 27.21L59.28 27.03L59.76 26.87L60.24 26.75L60.73 26.65L61.24 26.57L61.75 26.53L62.27 26.51L63.12 26.51L63.12 82.29L53.42 82.29Z" id="c1twB8ENDq"></path><path d="M64.59 26.57L65.1 26.65L65.59 26.75L66.07 26.87L66.54 27.03L67 27.21L67.45 27.41L67.88 27.64L68.3 27.89L68.71 28.16L69.09 28.46L69.46 28.77L69.82 29.1L70.15 29.46L70.46 29.83L70.76 30.21L71.03 30.62L71.28 31.04L71.51 31.47L71.71 31.92L71.89 32.38L72.05 32.85L72.17 33.33L72.27 33.82L72.35 34.33L72.39 34.84L72.41 35.36L72.41 82.29L63.05 82.29L63.05 26.51L63.56 26.51L64.08 26.53L64.59 26.57Z" id="aMNM3q8p5"></path><path d="M73.81 139.61L74.91 140.22L75.97 140.89L76.98 141.62L77.94 142.4L78.85 143.24L79.7 144.12L80.49 145.05L81.22 146.03L81.89 147.05L82.48 148.11L83.01 149.2L83.46 150.33L83.83 151.49L84.13 152.68L84.35 153.9L84.48 155.14L84.52 156.4L84.48 157.67L84.35 158.91L84.13 160.12L83.83 161.31L83.46 162.48L83.01 163.6L82.48 164.7L81.89 165.76L81.22 166.78L80.49 167.75L79.7 168.68L78.85 169.57L77.94 170.4L76.98 171.19L75.97 171.91L74.91 172.58L73.81 173.19L72.66 173.74L71.47 174.23L70.24 174.64L68.98 174.99L67.69 175.26L66.36 175.46L65.02 175.58L63.64 175.62L63.12 175.61L63.12 82.29L72.48 82.29L73.03 139.24L73.81 139.61ZM62.95 174.71L60.67 170.25L60.6 170.12L60.53 170L60.46 169.87L60.39 169.75L60.32 169.63L60.24 169.5L60.17 169.38L60.09 169.26L60.01 169.14L59.93 169.03L59.85 168.91L59.76 168.79L59.67 168.68L59.59 168.57L59.5 168.45L59.41 168.34L56.8 165.22L56.62 165L56.44 164.77L56.27 164.54L56.11 164.3L55.95 164.06L55.8 163.82L55.66 163.57L55.52 163.32L55.39 163.07L55.26 162.81L55.14 162.55L55.03 162.29L54.93 162.02L54.83 161.75L54.74 161.48L54.65 161.21L54.27 159.93L54.19 159.62L54.12 159.31L54.05 159L54 158.68L53.96 158.36L53.93 158.05L53.91 157.73L53.91 157.41L53.91 157.09L53.93 156.77L53.95 156.46L53.99 156.14L54.04 155.83L54.1 155.51L54.17 155.2L54.26 154.89L54.72 153.29L54.79 153.04L54.88 152.79L54.96 152.54L55.06 152.29L55.16 152.05L55.27 151.81L55.38 151.57L55.5 151.33L55.62 151.1L55.75 150.87L55.89 150.65L56.03 150.42L56.18 150.21L56.33 149.99L56.49 149.78L56.65 149.57L57.92 148L58.11 147.75L58.3 147.51L58.49 147.26L58.67 147.01L58.86 146.76L59.04 146.51L59.21 146.26L59.38 146L59.56 145.74L59.72 145.48L59.89 145.22L60.05 144.95L60.21 144.69L60.36 144.42L60.52 144.15L60.67 143.88L61.26 142.79L61.33 142.65L61.41 142.51L61.48 142.36L61.55 142.22L61.62 142.07L61.68 141.93L61.75 141.78L61.81 141.63L61.87 141.48L61.92 141.34L61.98 141.19L62.03 141.03L62.09 140.88L62.13 140.73L62.18 140.58L62.23 140.42L63.12 137.34L63.12 175.33L62.95 174.71Z" id="b2epGaegeX"></path><path d="M62.59 175.62L61.21 175.58L59.87 175.46L58.54 175.26L57.25 174.99L55.99 174.64L54.76 174.23L53.57 173.74L52.43 173.19L51.32 172.58L50.26 171.91L49.25 171.19L48.29 170.4L47.38 169.57L46.53 168.68L45.74 167.75L45.01 166.78L44.35 165.76L43.75 164.7L43.22 163.6L42.77 162.48L42.4 161.31L42.1 160.12L41.88 158.91L41.75 157.67L41.71 156.4L41.75 155.14L41.88 153.9L42.1 152.68L42.4 151.49L42.77 150.33L43.22 149.2L43.75 148.11L44.35 147.05L45.01 146.03L45.74 145.05L46.53 144.12L47.38 143.24L48.29 142.4L49.25 141.62L50.26 140.89L51.32 140.22L52.43 139.61L53.2 139.24L53.75 82.29L63.12 82.29L63.12 175.61L62.59 175.62ZM62.18 140.57L62.13 140.72L62.09 140.87L62.03 141.03L61.98 141.18L61.92 141.33L61.87 141.48L61.81 141.62L61.75 141.77L61.68 141.92L61.62 142.06L61.55 142.21L61.48 142.35L61.41 142.5L61.33 142.64L61.26 142.78L60.67 143.87L60.52 144.14L60.36 144.41L60.21 144.68L60.05 144.94L59.89 145.21L59.72 145.47L59.56 145.73L59.38 145.99L59.21 146.25L59.04 146.5L58.86 146.75L58.67 147L58.49 147.25L58.3 147.5L58.11 147.74L57.92 147.99L56.65 149.56L56.49 149.77L56.33 149.98L56.18 150.2L56.03 150.42L55.89 150.64L55.75 150.86L55.62 151.09L55.5 151.32L55.38 151.56L55.27 151.8L55.16 152.04L55.06 152.28L54.96 152.53L54.88 152.78L54.79 153.03L54.72 153.28L54.26 154.88L54.17 155.19L54.1 155.5L54.04 155.82L53.99 156.13L53.95 156.45L53.93 156.77L53.91 157.08L53.91 157.4L53.91 157.72L53.93 158.04L53.96 158.36L54 158.67L54.05 158.99L54.12 159.3L54.19 159.61L54.27 159.92L54.65 161.2L54.74 161.47L54.83 161.74L54.93 162.01L55.03 162.28L55.14 162.54L55.26 162.8L55.39 163.06L55.52 163.31L55.66 163.56L55.8 163.81L55.95 164.05L56.11 164.29L56.27 164.53L56.44 164.76L56.62 164.99L56.8 165.21L59.41 168.33L59.5 168.45L59.59 168.56L59.67 168.67L59.76 168.78L59.85 168.9L59.93 169.02L60.01 169.13L60.09 169.25L60.17 169.37L60.24 169.49L60.32 169.62L60.39 169.74L60.46 169.86L60.53 169.99L60.6 170.12L60.67 170.24L62.95 174.7L63.12 175.32L63.12 137.33L62.23 140.41L62.18 140.57Z" id="c41qQszFnD"></path><path d="M40.46 41.23C42.25 41.23 43.71 42.69 43.71 44.49C43.71 45.26 43.71 44.18 43.71 44.92C43.71 46.82 42.17 48.36 40.27 48.36C37.85 48.36 34.21 48.36 31.83 48.36C29.82 48.36 28.18 46.72 28.18 44.71C28.18 44.01 28.18 45.47 28.18 44.75C28.18 42.81 29.76 41.23 31.7 41.23C34.1 41.23 38 41.23 40.46 41.23Z" id="b39L5ZAdP"></path><path d="M40.46 61.5C42.25 61.5 43.71 62.95 43.71 64.75C43.71 65.53 43.71 64.44 43.71 65.18C43.71 67.08 42.17 68.62 40.27 68.62C37.85 68.62 34.21 68.62 31.83 68.62C29.82 68.62 28.18 66.99 28.18 64.97C28.18 64.27 28.18 65.74 28.18 65.01C28.18 63.07 29.76 61.5 31.7 61.5C34.1 61.5 38 61.5 40.46 61.5Z" id="btviNycUn"></path><path d="M40.46 81.45C42.25 81.45 43.71 82.91 43.71 84.71C43.71 85.48 43.71 84.4 43.71 85.13C43.71 87.03 42.17 88.57 40.27 88.57C37.85 88.57 34.21 88.57 31.83 88.57C29.82 88.57 28.18 86.94 28.18 84.92C28.18 84.23 28.18 85.69 28.18 84.97C28.18 83.02 29.76 81.45 31.7 81.45C34.1 81.45 38 81.45 40.46 81.45Z" id="a8JVY4rXSe"></path><path d="M40.46 102.59C42.25 102.59 43.71 104.05 43.71 105.85C43.71 106.62 43.71 105.54 43.71 106.28C43.71 108.18 42.17 109.72 40.27 109.72C37.85 109.72 34.21 109.72 31.83 109.72C29.82 109.72 28.18 108.08 28.18 106.06C28.18 105.37 28.18 106.83 28.18 106.11C28.18 104.17 29.76 102.59 31.7 102.59C34.1 102.59 38 102.59 40.46 102.59Z" id="a2LgN9F8dM"></path><path d="M40.46 122.9C42.25 122.9 43.71 124.35 43.71 126.15C43.71 126.93 43.71 125.84 43.71 126.58C43.71 128.48 42.17 130.02 40.27 130.02C37.85 130.02 34.21 130.02 31.83 130.02C29.82 130.02 28.18 128.39 28.18 126.37C28.18 125.67 28.18 127.14 28.18 126.42C28.18 124.47 29.76 122.9 31.7 122.9C34.1 122.9 38 122.9 40.46 122.9Z" id="b1M3eTgfw"></path><path d="M164.6 21.36L165.87 21.45L167.12 21.56L168.36 21.7L169.59 21.86L170.81 22.05L172.01 22.26L173.2 22.49L173.44 22.55L171.24 37.79L170.83 37.72L169.37 37.59L167.85 37.58L166.29 37.69L164.75 37.91L163.26 38.24L161.86 38.67L160.53 39.2L159.3 39.8L158.17 40.49L157.14 41.24L156.24 42.06L155.47 42.93L154.84 43.84L154.35 44.8L154.03 45.78L153.87 46.79L153.88 47.82L153.99 48.85L154.13 49.89L154.29 50.91L154.5 51.9L154.78 52.85L155.13 53.74L155.58 54.56L156.12 55.3L156.79 55.93L157.59 56.45L158.54 56.85L159.65 57.1L160.93 57.19L162.41 57.11L164.03 56.86L165.75 56.45L167.51 55.89L169.3 55.21L171.06 54.41L172.51 53.66L171.13 71.13L170.51 71.34L168.98 71.82L167.45 72.25L165.95 72.63L164.46 72.94L162.99 73.19L161.55 73.38L160.14 73.5L158.77 73.55L157.43 73.53L156.13 73.45L154.87 73.31L153.67 73.13L152.5 72.9L151.39 72.63L150.31 72.31L149.29 71.95L148.3 71.55L147.36 71.11L146.46 70.63L145.6 70.11L144.78 69.55L144.01 68.96L143.27 68.34L142.58 67.68L141.93 67L141.31 66.28L140.74 65.54L140.2 64.77L139.7 63.97L139.24 63.15L138.82 62.31L138.43 61.45L138.08 60.56L137.76 59.66L137.49 58.74L137.24 57.8L137.03 56.85L136.86 55.89L136.72 54.91L136.61 53.93L136.53 52.93L136.49 51.93L136.48 50.92L136.5 49.9L136.55 48.88L136.63 47.86L136.75 46.84L136.89 45.81L137.06 44.79L137.26 43.78L137.49 42.77L137.74 41.77L138.03 40.78L138.34 39.8L138.68 38.83L139.05 37.88L139.44 36.94L139.87 36.01L140.32 35.1L140.8 34.21L141.31 33.34L141.85 32.49L142.42 31.66L143.01 30.85L143.64 30.07L144.29 29.31L144.97 28.58L145.68 27.87L146.42 27.2L147.19 26.55L147.98 25.94L148.8 25.36L149.66 24.81L150.54 24.3L151.45 23.82L152.39 23.38L153.35 22.98L154.35 22.62L155.37 22.3L156.42 22.02L157.51 21.78L158.62 21.59L159.76 21.45L160.92 21.35L162.12 21.3L163.35 21.3L164.6 21.36Z" id="acB3o4sz8"></path><path d="M129.41 23.54L130.56 24.19L131.61 24.97L132.55 25.85L133.38 26.83L134.08 27.9L134.64 29.05L135.06 30.27L135.32 31.54L135.4 32.86L135.32 34.19L135.06 35.46L134.64 36.68L134.08 37.83L133.38 38.9L132.55 39.88L131.61 40.76L130.56 41.54L129.41 42.19L128.19 42.72L126.88 43.11L125.52 43.35L124.1 43.43L122.69 43.35L121.32 43.11L120.02 42.72L118.79 42.19L117.65 41.54L116.6 40.76L115.66 39.88L114.83 38.9L114.13 37.83L113.57 36.68L113.15 35.46L112.89 34.19L112.8 32.86L112.89 31.54L113.15 30.27L113.57 29.05L114.13 27.9L114.83 26.83L115.66 25.85L116.6 24.97L117.65 24.19L118.79 23.54L120.02 23.01L121.32 22.62L122.69 22.38L124.1 22.3L125.52 22.38L126.88 22.62L128.19 23.01L128.19 23.01L129.41 23.54ZM122.04 33L122.29 34.56L122.98 35.84L124.01 36.7L125.26 37.02L126.51 36.7L127.53 35.84L128.22 34.56L128.47 33L128.22 31.44L127.53 30.17L126.51 29.3L125.26 28.99L124.01 29.3L122.98 30.17L122.29 31.44L122.29 31.44L122.04 33Z" id="aV1SN5XT"></path></defs><g><g><g><use xlink:href="#dvBh2kFd8" opacity="1" fill="#ffb818" fill-opacity="0.68"></use></g><g><use xlink:href="#bpkm5mjwY" opacity="1" fill="#e3a734" fill-opacity="0.83"></use></g><g><use xlink:href="#c1twB8ENDq" opacity="1" fill="#184586" fill-opacity="0.68"></use></g><g><use xlink:href="#aMNM3q8p5" opacity="1" fill="#3086ff" fill-opacity="0.68"></use></g><g><use xlink:href="#b2epGaegeX" opacity="1" fill="#da0606" fill-opacity="0.68"></use></g><g><use xlink:href="#c41qQszFnD" opacity="1" fill="#ab0a0a" fill-opacity="0.68"></use></g><g><use xlink:href="#b39L5ZAdP" opacity="1" fill="#9c3416" fill-opacity="0.68"></use></g><g><use xlink:href="#btviNycUn" opacity="1" fill="#9c3416" fill-opacity="0.68"></use></g><g><use xlink:href="#a8JVY4rXSe" opacity="1" fill="#9c3416" fill-opacity="0.68"></use></g><g><use xlink:href="#a2LgN9F8dM" opacity="1" fill="#9c3416" fill-opacity="0.68"></use></g><g><use xlink:href="#b1M3eTgfw" opacity="1" fill="#9c3416" fill-opacity="0.68"></use></g><g><use xlink:href="#acB3o4sz8" opacity="1" fill="#e7e7e7" fill-opacity="0.68"></use></g><g><use xlink:href="#aV1SN5XT" opacity="1" fill="#e7e7e7" fill-opacity="0.68"></use></g></g></g></svg>