<svg
    xmlns="http://www.w3.org/2000/svg"
    viewBox="0 0 640 640"
    id="vector"
    width="640px"
    height="640px">
    <path
        id="bor6ifsf7"
        d="M 196.24 61.09 L 198.43 61.31 L 200.58 61.62 L 202.71 62.01 L 204.8 62.48 L 206.87 63.03 L 208.9 63.67 L 210.89 64.37 L 212.85 65.16 L 214.78 66.01 L 216.66 66.94 L 218.49 67.94 L 220.29 69.01 L 222.04 70.14 L 223.74 71.34 L 225.39 72.6 L 226.99 73.92 L 228.54 75.3 L 230.04 76.74 L 231.48 78.24 L 232.86 79.79 L 234.18 81.39 L 235.44 83.04 L 236.64 84.75 L 237.77 86.49 L 238.84 88.29 L 239.84 90.13 L 240.77 92.01 L 241.63 93.93 L 242.41 95.89 L 243.12 97.88 L 243.75 99.92 L 244.3 101.98 L 244.78 104.08 L 245.17 106.2 L 245.47 108.36 L 245.69 110.54 L 245.83 112.74 L 245.87 114.97 L 245.87 391.12 L 246.65 391.47 L 250.98 393.64 L 255.2 395.95 L 259.32 398.41 L 263.33 401 L 267.22 403.74 L 270.99 406.6 L 274.64 409.6 L 278.16 412.72 L 281.55 415.96 L 284.8 419.31 L 287.92 422.78 L 290.88 426.37 L 293.71 430.05 L 296.37 433.84 L 298.89 437.73 L 301.24 441.71 L 303.43 445.79 L 305.45 449.95 L 307.29 454.19 L 308.96 458.52 L 310.45 462.92 L 311.75 467.39 L 312.87 471.93 L 313.79 476.54 L 314.51 481.2 L 315.03 485.92 L 315.35 490.7 L 315.45 495.52 L 315.35 500.35 L 315.03 505.13 L 314.51 509.85 L 313.79 514.51 L 312.87 519.12 L 311.75 523.66 L 310.45 528.13 L 308.96 532.53 L 307.29 536.86 L 305.45 541.1 L 303.43 545.26 L 301.24 549.33 L 298.89 553.32 L 296.37 557.21 L 293.71 561 L 290.88 564.68 L 287.92 568.26 L 284.8 571.74 L 281.55 575.09 L 278.16 578.33 L 274.64 581.45 L 270.99 584.45 L 267.22 587.31 L 263.33 590.05 L 259.32 592.64 L 255.2 595.1 L 250.98 597.41 L 246.65 599.57 L 242.22 601.59 L 237.7 603.45 L 233.09 605.15 L 228.39 606.68 L 223.61 608.05 L 218.75 609.25 L 213.82 610.28 L 208.81 611.12 L 203.75 611.79 L 198.61 612.27 L 193.42 612.56 L 188.18 612.66 L 182.94 612.56 L 177.75 612.27 L 172.62 611.79 L 167.55 611.12 L 162.55 610.28 L 157.61 609.25 L 152.75 608.05 L 147.97 606.68 L 143.27 605.15 L 138.66 603.45 L 134.14 601.59 L 129.71 599.57 L 125.39 597.41 L 121.16 595.1 L 117.04 592.64 L 113.04 590.05 L 109.15 587.31 L 105.37 584.45 L 101.72 581.45 L 98.2 578.33 L 94.81 575.09 L 91.56 571.74 L 88.45 568.26 L 85.48 564.68 L 82.66 561 L 79.99 557.21 L 77.48 553.32 L 75.12 549.33 L 72.94 545.26 L 70.92 541.1 L 69.07 536.86 L 67.4 532.53 L 65.91 528.13 L 64.61 523.66 L 63.5 519.12 L 62.58 514.51 L 61.85 509.85 L 61.33 505.13 L 61.02 500.35 L 60.91 495.52 L 61.02 490.7 L 61.33 485.92 L 61.85 481.2 L 62.58 476.54 L 63.5 471.93 L 64.61 467.39 L 65.91 462.92 L 67.4 458.52 L 69.07 454.19 L 70.92 449.95 L 72.94 445.79 L 75.12 441.71 L 77.48 437.73 L 79.99 433.84 L 82.66 430.05 L 85.48 426.37 L 88.45 422.78 L 91.56 419.31 L 94.81 415.96 L 98.2 412.72 L 101.72 409.6 L 105.37 406.6 L 109.15 403.74 L 113.04 401 L 117.04 398.41 L 121.16 395.95 L 125.39 393.64 L 129.71 391.47 L 130.49 391.12 L 130.49 115.96 L 130.54 113.69 L 130.67 111.45 L 130.9 109.23 L 131.21 107.03 L 131.61 104.87 L 132.09 102.73 L 132.65 100.63 L 133.3 98.56 L 134.02 96.53 L 134.82 94.53 L 135.69 92.58 L 136.63 90.66 L 137.65 88.79 L 138.74 86.96 L 139.89 85.18 L 141.11 83.45 L 142.4 81.77 L 143.74 80.13 L 145.15 78.56 L 146.61 77.03 L 148.14 75.57 L 149.71 74.16 L 151.35 72.82 L 153.03 71.53 L 154.76 70.31 L 156.54 69.16 L 158.37 68.07 L 160.24 67.05 L 162.16 66.11 L 164.11 65.24 L 166.11 64.44 L 168.14 63.72 L 170.21 63.07 L 172.31 62.51 L 174.45 62.03 L 176.61 61.63 L 178.81 61.32 L 181.03 61.09 L 183.27 60.96 L 185.54 60.91 L 191.81 60.91 L 194.04 60.95 L 196.24 61.09 Z"
        fill="#ffffff"
        stroke="#000000"
        stroke-width="14"/>
    <path
        id="hwxv7afup"
        d="M 188.18 103.57 L 188.18 451.82"
        fill="#000000"
        stroke="#969696"
        stroke-width="18"/>
    <path
        id="kg3l7x0v"
        d="M 188.18 135.73 L 188.18 451.82"
        fill="#ff0000"
        stroke="#d5002a"
        stroke-width="18"
        stroke-dasharray="279.2128333333334,36.877166666666646"
        stroke-dashoffset="279.2128333333334"/>
    <path
        id="e6ajrkq26"
        d="M 268.6 500.07 C 268.6 547.16 232.57 585.38 188.18 585.38 C 143.8 585.38 107.76 547.16 107.76 500.07 C 107.76 452.98 143.8 414.76 188.18 414.76 C 232.57 414.76 268.6 452.98 268.6 500.07 Z"
        fill="#d5002a"
        stroke-width="1"/>
    <g id="group_5">
        <path
            id="e402l6x48u"
            d="M 155.66 135.73 L 132.59 135.73"
            fill="#000000"
            stroke="#000000"
            stroke-width="18"/>
        <path
            id="b1f9i82z9a"
            d="M 155.66 176.01 L 132.59 176.01"
            fill="#000000"
            stroke="#000000"
            stroke-width="18"/>
        <path
            id="axadj2jen"
            d="M 155.66 216.57 L 132.59 216.57"
            fill="#000000"
            stroke="#000000"
            stroke-width="18"/>
        <path
            id="aby7l1gck"
            d="M 155.66 259.02 L 132.59 259.02"
            fill="#000000"
            stroke="#000000"
            stroke-width="18"/>
        <path
            id="aopkjs2c6"
            d="M 155.66 299.3 L 132.59 299.3"
            fill="#000000"
            stroke="#000000"
            stroke-width="18"/>
        <path
            id="a6ghxszz4g"
            d="M 155.66 339.86 L 132.59 339.86"
            fill="#000000"
            stroke="#000000"
            stroke-width="18"/>
    </g>
    <g id="group_11">
        <path
            id="axpyzx5q6"
            d="M 471.38 89.02 L 475.48 89.54 L 479.52 90.23 L 483.5 91.09 L 487.41 92.12 L 491.25 93.31 L 495.02 94.65 L 498.72 96.15 L 502.34 97.79 L 505.87 99.59 L 508.82 101.24 L 495.63 128.27 L 495.48 128.21 L 492.84 127.27 L 490.15 126.44 L 487.41 125.72 L 484.63 125.12 L 481.8 124.63 L 478.93 124.26 L 476.04 124.02 L 473.17 123.91 L 470.32 123.92 L 467.49 124.06 L 464.69 124.31 L 461.91 124.68 L 459.16 125.17 L 456.44 125.77 L 453.76 126.49 L 451.11 127.31 L 448.5 128.24 L 445.94 129.28 L 443.41 130.42 L 440.94 131.66 L 438.51 132.99 L 436.13 134.43 L 433.81 135.95 L 431.55 137.57 L 429.34 139.28 L 427.2 141.08 L 425.12 142.96 L 423.11 144.93 L 421.16 146.97 L 419.29 149.1 L 417.49 151.3 L 415.77 153.58 L 414.13 155.93 L 412.57 158.34 L 411.09 160.83 L 409.71 163.38 L 408.41 166 L 407.2 168.67 L 406.08 171.41 L 405.07 174.2 L 404.15 177.05 L 403.33 179.95 L 402.62 182.9 L 402.02 185.9 L 401.52 188.94 L 401.14 192.03 L 400.87 195.13 L 400.72 198.21 L 400.69 201.27 L 400.77 204.3 L 400.97 207.31 L 401.27 210.28 L 401.69 213.23 L 402.21 216.13 L 402.83 219 L 403.56 221.83 L 404.39 224.62 L 405.32 227.35 L 406.34 230.04 L 407.46 232.68 L 408.67 235.27 L 409.97 237.79 L 411.36 240.26 L 412.83 242.67 L 414.39 245.01 L 416.04 247.28 L 417.76 249.49 L 419.56 251.62 L 421.44 253.67 L 423.39 255.65 L 425.42 257.54 L 427.51 259.36 L 429.68 261.08 L 431.91 262.72 L 434.21 264.27 L 436.56 265.72 L 438.98 267.08 L 441.46 268.33 L 443.99 269.49 L 446.58 270.54 L 449.22 271.48 L 451.91 272.31 L 454.65 273.03 L 457.43 273.63 L 460.26 274.12 L 463.14 274.49 L 466.02 274.73 L 468.89 274.84 L 471.74 274.83 L 474.57 274.69 L 477.38 274.44 L 480.16 274.07 L 482.9 273.58 L 485.62 272.97 L 488.31 272.26 L 490.95 271.44 L 493.56 270.51 L 496.13 269.47 L 498.65 268.33 L 501.13 267.09 L 503.55 265.76 L 505.93 264.32 L 506.54 263.92 L 520.48 281.13 L 519.66 281.81 L 516.51 284.25 L 513.28 286.56 L 509.96 288.74 L 506.57 290.78 L 503.11 292.69 L 499.57 294.46 L 495.97 296.08 L 492.31 297.55 L 488.58 298.88 L 484.8 300.05 L 480.97 301.07 L 477.09 301.93 L 473.17 302.63 L 469.2 303.16 L 465.19 303.52 L 461.15 303.71 L 457.08 303.73 L 452.99 303.56 L 448.87 303.22 L 444.77 302.7 L 440.72 302.01 L 436.75 301.14 L 432.84 300.12 L 428.99 298.93 L 425.22 297.59 L 421.53 296.09 L 417.91 294.44 L 414.37 292.65 L 410.92 290.72 L 407.55 288.65 L 404.28 286.44 L 401.09 284.1 L 398 281.64 L 395.01 279.06 L 392.12 276.35 L 389.33 273.53 L 386.64 270.6 L 384.07 267.56 L 381.61 264.42 L 379.26 261.18 L 377.04 257.84 L 374.93 254.41 L 372.94 250.89 L 371.09 247.29 L 369.36 243.6 L 367.76 239.84 L 366.3 236 L 364.97 232.1 L 363.79 228.13 L 362.75 224.09 L 361.86 220 L 361.11 215.86 L 360.52 211.66 L 360.09 207.42 L 359.81 203.13 L 359.69 198.8 L 359.73 194.44 L 359.94 190.05 L 360.32 185.63 L 360.87 181.23 L 361.58 176.89 L 362.44 172.61 L 363.46 168.4 L 364.62 164.27 L 365.93 160.21 L 367.38 156.23 L 368.97 152.33 L 370.7 148.51 L 372.55 144.78 L 374.53 141.14 L 376.64 137.6 L 378.87 134.15 L 381.21 130.8 L 383.67 127.56 L 386.24 124.42 L 388.91 121.39 L 391.68 118.47 L 394.56 115.67 L 397.53 112.99 L 400.59 110.42 L 403.74 107.99 L 406.97 105.68 L 410.28 103.5 L 413.67 101.46 L 417.14 99.55 L 420.67 97.78 L 424.28 96.16 L 427.94 94.68 L 431.66 93.36 L 435.44 92.18 L 439.28 91.17 L 443.16 90.31 L 447.08 89.61 L 451.05 89.08 L 455.05 88.72 L 459.09 88.53 L 463.16 88.51 L 467.26 88.67 L 471.38 89.02 Z"
            fill="#ffffff"
            stroke-width="1"/>
        <path
            id="c4ow7rpll9"
            d="M 319.87 91.12 L 321.01 91.3 L 322.13 91.55 L 323.23 91.86 L 324.32 92.24 L 325.37 92.68 L 326.41 93.18 L 327.42 93.74 L 328.41 94.36 L 329.37 95.04 L 330.3 95.77 L 331.21 96.55 L 332.08 97.39 L 332.92 98.27 L 333.72 99.2 L 334.5 100.18 L 335.23 101.21 L 335.93 102.27 L 336.58 103.38 L 337.2 104.52 L 337.78 105.7 L 338.31 106.92 L 338.8 108.17 L 339.24 109.46 L 339.64 110.78 L 339.99 112.12 L 340.28 113.49 L 340.53 114.89 L 340.72 116.31 L 340.87 117.75 L 340.95 119.22 L 340.98 120.7 L 340.95 122.18 L 340.87 123.65 L 340.72 125.09 L 340.53 126.51 L 340.28 127.91 L 339.99 129.28 L 339.64 130.62 L 339.24 131.94 L 338.8 133.22 L 338.31 134.48 L 337.78 135.69 L 337.2 136.88 L 336.58 138.02 L 335.93 139.13 L 335.23 140.19 L 334.5 141.22 L 333.72 142.19 L 332.92 143.13 L 332.08 144.01 L 331.21 144.85 L 330.3 145.63 L 329.37 146.36 L 328.41 147.04 L 327.42 147.66 L 326.41 148.22 L 325.37 148.72 L 324.32 149.16 L 323.23 149.54 L 322.13 149.85 L 321.01 150.1 L 319.87 150.28 L 318.72 150.38 L 317.55 150.42 L 316.38 150.38 L 315.23 150.28 L 314.09 150.1 L 312.97 149.85 L 311.87 149.54 L 310.79 149.16 L 309.73 148.72 L 308.69 148.22 L 307.68 147.66 L 306.69 147.04 L 305.73 146.36 L 304.8 145.63 L 303.9 144.85 L 303.03 144.01 L 302.19 143.13 L 301.38 142.19 L 300.61 141.22 L 299.87 140.19 L 299.18 139.13 L 298.52 138.02 L 297.9 136.88 L 297.33 135.69 L 296.79 134.48 L 296.3 133.22 L 295.86 131.94 L 295.47 130.62 L 295.12 129.28 L 294.82 127.91 L 294.57 126.51 L 294.38 125.09 L 294.24 123.65 L 294.15 122.18 L 294.13 120.7 L 294.15 119.22 L 294.24 117.75 L 294.38 116.31 L 294.57 114.89 L 294.82 113.49 L 295.12 112.12 L 295.47 110.78 L 295.86 109.46 L 296.3 108.17 L 296.79 106.92 L 297.33 105.7 L 297.9 104.52 L 298.52 103.38 L 299.18 102.27 L 299.87 101.21 L 300.61 100.18 L 301.38 99.2 L 302.19 98.27 L 303.03 97.39 L 303.9 96.55 L 304.8 95.77 L 305.73 95.04 L 306.69 94.36 L 307.68 93.74 L 308.69 93.18 L 309.73 92.68 L 310.79 92.24 L 311.87 91.86 L 312.97 91.55 L 314.09 91.3 L 315.23 91.12 L 316.38 91.02 L 317.55 90.98 L 318.72 91.02 L 319.87 91.12 Z M 315.09 106.66 L 313.91 107.02 L 312.79 107.52 L 311.72 108.14 L 310.71 108.87 L 309.77 109.72 L 308.9 110.67 L 308.11 111.71 L 307.41 112.84 L 306.79 114.05 L 306.28 115.34 L 305.87 116.68 L 305.56 118.09 L 305.38 119.55 L 305.31 121.05 L 305.38 122.55 L 305.56 124.01 L 305.87 125.41 L 306.28 126.76 L 306.79 128.05 L 307.41 129.26 L 308.11 130.39 L 308.9 131.43 L 309.77 132.38 L 310.71 133.22 L 311.72 133.96 L 312.79 134.58 L 313.91 135.07 L 315.09 135.44 L 316.3 135.66 L 317.55 135.73 L 318.8 135.66 L 320.02 135.44 L 321.19 135.07 L 322.31 134.58 L 323.38 133.96 L 324.39 133.22 L 325.33 132.38 L 326.2 131.43 L 326.99 130.39 L 327.7 129.26 L 328.31 128.05 L 328.83 126.76 L 329.24 125.41 L 329.54 124.01 L 329.73 122.55 L 329.79 121.05 L 329.73 119.55 L 329.54 118.09 L 329.24 116.68 L 328.83 115.34 L 328.31 114.05 L 327.7 112.84 L 326.99 111.71 L 326.2 110.67 L 325.33 109.72 L 324.39 108.87 L 323.38 108.14 L 322.31 107.52 L 321.19 107.02 L 320.02 106.66 L 318.8 106.44 L 317.55 106.36 L 316.3 106.44 L 315.09 106.66 Z"
            fill="#ffffff"
            stroke-width="1"/>
    </g>
</svg>
